<svg xmlns="http://www.w3.org/2000/svg" viewBox="0 0 207.397 110">
  <defs>
    <style>
      .cls-1 {
        fill: #b3b3b3;
      }
    </style>
  </defs>
  <path id="Path_7885" data-name="Path 7885" class="cls-1" d="M25.927,32.557a.716.716,0,0,1,.719-.719h3.034L28.162,29.2a.7.7,0,1,1,1.2-.719h0l1.517,2.635,1.517-2.635a.663.663,0,0,1,.958-.16.642.642,0,0,1,.24.878l-1.517,2.714h3.034a.777.777,0,0,1,.639.8c0,.319-.319.559-.639.639H32.074l1.517,2.635a.768.768,0,0,1-.319.958.642.642,0,0,1-.878-.24l-1.517-2.635L29.36,36.709a.663.663,0,0,1-.958.16.726.726,0,0,1-.24-.878l1.517-2.635H26.566A.777.777,0,0,1,25.927,32.557ZM67.043,5.812h3.912l-2,3.433a.687.687,0,1,0,1.118.8.078.078,0,0,1,.08-.08l2-3.433,2,3.433a.663.663,0,0,0,.958.16.726.726,0,0,0,.24-.878L73.43,5.812h3.912a.719.719,0,1,0,0-1.437H73.43l2-3.433a.768.768,0,0,0-.319-.958.756.756,0,0,0-.878.24l-2,3.353L70.237.3a.663.663,0,0,0-.958-.16.642.642,0,0,0-.24.878l2,3.433H67.043a.777.777,0,0,0-.639.8.913.913,0,0,0,.639.559Zm139.795,100.2a.694.694,0,0,1-.958-.319L198.215,91a1.361,1.361,0,0,1,0-1.118.878.878,0,0,1,.8-.479h1.2l-8.223-15.888L183.845,89.4h1.2a.878.878,0,0,1,.8.479,1.364,1.364,0,0,1,0,1.118l-3.433,6.547a.982.982,0,0,1-.878.559h0a.982.982,0,0,1-.878-.559L174.184,85.01a1.361,1.361,0,0,1,0-1.118.878.878,0,0,1,.8-.479h2.235L165.642,60.82l-6.307,12.135a61.124,61.124,0,0,1,1.2,12.055v7.026a2.862,2.862,0,0,1-2.874,2.874H156.54v13.812a1.2,1.2,0,1,1-2.4,0V94.91H47.563v13.812a1.2,1.2,0,1,1-2.4,0V94.91H44.05a2.862,2.862,0,0,1-2.874-2.874V86.607a2.862,2.862,0,0,1,2.874-2.874h1.118a55.845,55.845,0,0,1,2-13.652L42.294,60.9,30.318,83.493h2.315a.878.878,0,0,1,.8.479,1.364,1.364,0,0,1,0,1.118L26.885,97.625a.982.982,0,0,1-.878.559h0a.982.982,0,0,1-.878-.559l-3.513-6.547a1.364,1.364,0,0,1,0-1.118.878.878,0,0,1,.8-.479h1.277l-8.3-15.967L6.926,89.4h1.2a.878.878,0,0,1,.8.479,1.364,1.364,0,0,1,0,1.118l-7.744,14.69a.762.762,0,0,1-.958.24.642.642,0,0,1-.24-.878l7.5-14.211H6.367a.878.878,0,0,1-.8-.479,1.364,1.364,0,0,1,0-1.118L14.59,72.157a.982.982,0,0,1,.878-.559h0a.982.982,0,0,1,.878.559l9.022,17.085a1.364,1.364,0,0,1,0,1.118.878.878,0,0,1-.8.479H23.212l2.874,5.349,5.988-11.337H29.759a.878.878,0,0,1-.8-.479,1.364,1.364,0,0,1,0-1.118L41.5,59.542a.93.93,0,0,1,1.277-.4.962.962,0,0,1,.4.4L47.8,68.324A55.677,55.677,0,0,1,99.776,29.444V25.452h1.277a59.543,59.543,0,0,1,37.523,13.333l2.4-2.4-.719-.719a1.451,1.451,0,0,1,0-2.156l3.353-3.353a1.451,1.451,0,0,1,2.156,0l14.69,14.61a1.451,1.451,0,0,1,0,2.156l-3.433,3.433a1.451,1.451,0,0,1-2.156,0l-.719-.719-3.114,3.114a59.1,59.1,0,0,1,7.9,18.283l5.908-11.417a.982.982,0,0,1,.878-.559h0a.982.982,0,0,1,.878.559l12.375,23.791a1.36,1.36,0,0,1,0,1.118.878.878,0,0,1-.8.479h-2.235l5.828,11.257,2.794-5.349h-1.2a.878.878,0,0,1-.8-.479,1.361,1.361,0,0,1,0-1.118l8.862-17.085a.93.93,0,0,1,1.277-.4.962.962,0,0,1,.4.4l8.782,17.085a1.36,1.36,0,0,1,0,1.118.878.878,0,0,1-.8.479h-1.2l7.345,14.211a.646.646,0,0,1-.4.878ZM142.649,34.473l13.413,13.413,2.076-2.076L144.645,32.4Zm-2.315,5.908a60.709,60.709,0,0,1,9.341,10.379l3.433-3.513-9.82-9.82-.719.639h0ZM102.092,29.444s2.954.16,3.433.16c1.118.08,2.235.24,3.353.4A49.16,49.16,0,0,1,115.5,31.44a54.545,54.545,0,0,1,12.455,5.11,58.665,58.665,0,0,1,12.854,9.74,56.071,56.071,0,0,1,13.572,23.233,52.626,52.626,0,0,1,2.315,14.53h1.6a57.247,57.247,0,0,0-56.126-56.046Zm10.3,3.593c13.173,7.425,22.674,27.384,22.993,50.856h18.921A53.477,53.477,0,0,0,112.391,33.036Zm-10.7,50.936h32.254c-.319-26.027-12.055-47.5-27.384-51.814-1.6-.16-3.273-.24-4.95-.24ZM95.305,32.078C79.977,36.389,68.32,57.866,67.921,83.893h32.334V31.839C98.579,31.839,96.9,31.919,95.305,32.078ZM47.643,83.972H66.564c.319-23.472,9.82-43.431,22.993-50.856A53.251,53.251,0,0,0,47.643,83.972Zm110.574,2.874a.515.515,0,0,0-.479-.479H44.05a.515.515,0,0,0-.479.479v5.429a.515.515,0,0,0,.479.479H157.738a.515.515,0,0,0,.479-.479h0Zm22.674-39.679a.716.716,0,0,1,.719-.719h3.034l-1.517-2.635a.687.687,0,0,1,1.118-.8.279.279,0,0,1,.08.16l1.517,2.635,1.517-2.635a.663.663,0,0,1,.958-.16.642.642,0,0,1,.24.878l-1.517,2.635h3.034a.777.777,0,0,1,.639.8c0,.319-.319.559-.639.639h-3.034l1.517,2.635a.768.768,0,0,1-.319.958.642.642,0,0,1-.878-.24l-1.517-2.635-1.517,2.635a.663.663,0,0,1-.958.16.726.726,0,0,1-.24-.878l1.517-2.635h-3.034a.849.849,0,0,1-.719-.8Z" transform="translate(0.1 0.081)"/>
</svg>
