<svg xmlns="http://www.w3.org/2000/svg" viewBox="0 0 190.43 101">
  <defs>
    <style>
      .cls-1 {
        fill: #b3b3b3;
      }
    </style>
  </defs>
  <path id="Path_7885" data-name="Path 7885" class="cls-1" d="M23.8,29.887a.657.657,0,0,1,.66-.66h2.786L25.85,26.808a.641.641,0,0,1,1.1-.66h0l1.393,2.419,1.393-2.419a.609.609,0,0,1,.88-.147.59.59,0,0,1,.22.806L29.442,29.3h2.786a.714.714,0,0,1,.586.733c0,.293-.293.513-.586.586H29.442l1.393,2.419a.705.705,0,0,1-.293.88.59.59,0,0,1-.806-.22L28.342,31.28,26.95,33.7a.609.609,0,0,1-.88.147.667.667,0,0,1-.22-.806l1.393-2.419H24.384A.714.714,0,0,1,23.8,29.887ZM61.55,5.33h3.592L63.309,8.482a.631.631,0,1,0,1.026.733.072.072,0,0,1,.073-.073L66.241,5.99l1.833,3.152a.609.609,0,0,0,.88.147.667.667,0,0,0,.22-.806L67.414,5.33h3.592a.66.66,0,1,0,0-1.319H67.414L69.247.858a.705.705,0,0,0-.293-.88.694.694,0,0,0-.806.22L66.314,3.277,64.482.272A.609.609,0,0,0,63.6.125a.59.59,0,0,0-.22.806l1.833,3.152H61.55a.714.714,0,0,0-.586.733.838.838,0,0,0,.586.513Zm128.357,92a.637.637,0,0,1-.88-.293L181.99,83.546a1.249,1.249,0,0,1,0-1.026.806.806,0,0,1,.733-.44h1.1l-7.55-14.588L168.795,82.08h1.1a.806.806,0,0,1,.733.44,1.252,1.252,0,0,1,0,1.026l-3.152,6.011a.9.9,0,0,1-.806.513h0a.9.9,0,0,1-.806-.513l-5.938-11.509a1.249,1.249,0,0,1,0-1.026.806.806,0,0,1,.733-.44h2.053L152.081,55.837,146.29,66.979a56.123,56.123,0,0,1,1.1,11.069V84.5a2.628,2.628,0,0,1-2.639,2.639h-1.026V99.82a1.1,1.1,0,0,1-2.2,0V87.138H43.663V99.82a1.1,1.1,0,0,1-2.2,0V87.138H40.438A2.628,2.628,0,0,1,37.8,84.5V79.514a2.628,2.628,0,0,1,2.639-2.639h1.026A51.276,51.276,0,0,1,43.3,64.34l-4.472-8.43-11,20.745h2.126a.806.806,0,0,1,.733.44,1.252,1.252,0,0,1,0,1.026L24.677,89.631a.9.9,0,0,1-.806.513h0a.9.9,0,0,1-.806-.513L19.839,83.62a1.252,1.252,0,0,1,0-1.026.806.806,0,0,1,.733-.44h1.173L14.121,67.492,6.351,82.08h1.1a.806.806,0,0,1,.733.44,1.252,1.252,0,0,1,0,1.026L1.073,97.034a.7.7,0,0,1-.88.22.59.59,0,0,1-.22-.806L6.864,83.4H5.838a.806.806,0,0,1-.733-.44,1.252,1.252,0,0,1,0-1.026l8.283-15.687a.9.9,0,0,1,.806-.513h0a.9.9,0,0,1,.806.513l8.283,15.687a1.252,1.252,0,0,1,0,1.026.806.806,0,0,1-.733.44H21.305l2.639,4.911,5.5-10.409H27.316a.806.806,0,0,1-.733-.44,1.252,1.252,0,0,1,0-1.026L38.092,54.664a.854.854,0,0,1,1.173-.367.883.883,0,0,1,.367.367l4.252,8.064A51.122,51.122,0,0,1,91.6,27.028V23.363h1.173A54.672,54.672,0,0,1,127.231,35.6l2.2-2.2-.66-.66a1.333,1.333,0,0,1,0-1.979l3.079-3.079a1.333,1.333,0,0,1,1.979,0L147.316,41.1a1.333,1.333,0,0,1,0,1.979l-3.152,3.152a1.333,1.333,0,0,1-1.979,0l-.66-.66-2.859,2.859a54.262,54.262,0,0,1,7.257,16.787l5.425-10.483a.9.9,0,0,1,.806-.513h0a.9.9,0,0,1,.806.513l11.362,21.845a1.249,1.249,0,0,1,0,1.026.806.806,0,0,1-.733.44h-2.053l5.351,10.336,2.566-4.911h-1.1a.806.806,0,0,1-.733-.44,1.249,1.249,0,0,1,0-1.026l8.137-15.687a.854.854,0,0,1,1.173-.367.883.883,0,0,1,.367.367l8.064,15.687a1.249,1.249,0,0,1,0,1.026.806.806,0,0,1-.733.44h-1.1l6.744,13.048a.593.593,0,0,1-.367.806ZM130.969,31.646l12.315,12.315,1.906-1.906L132.8,29.74Zm-2.126,5.425a55.742,55.742,0,0,1,8.577,9.53l3.152-3.225-9.017-9.017-.66.586h0ZM93.73,27.028s2.712.147,3.152.147c1.026.073,2.053.22,3.079.367a45.138,45.138,0,0,1,6.084,1.319,50.083,50.083,0,0,1,11.436,4.692,53.865,53.865,0,0,1,11.8,8.943,51.484,51.484,0,0,1,12.462,21.332,48.32,48.32,0,0,1,2.126,13.342h1.466A52.564,52.564,0,0,0,93.8,25.709Zm9.456,3.3c12.1,6.817,20.819,25.144,21.112,46.7h17.373A49.1,49.1,0,0,0,103.187,30.327ZM93.364,77.1h29.615c-.293-23.9-11.069-43.616-25.144-47.575-1.466-.147-3.006-.22-4.545-.22ZM87.5,29.447C73.425,33.406,62.722,53.125,62.356,77.022H92.044V29.227C90.5,29.227,88.966,29.3,87.5,29.447ZM43.736,77.1H61.11c.293-21.552,9.017-39.878,21.112-46.7A48.894,48.894,0,0,0,43.736,77.1Zm101.527,2.639a.473.473,0,0,0-.44-.44H40.438a.473.473,0,0,0-.44.44v4.985a.473.473,0,0,0,.44.44H144.824a.473.473,0,0,0,.44-.44h0ZM166.082,43.3a.657.657,0,0,1,.66-.66h2.786l-1.393-2.419a.631.631,0,1,1,1.026-.733.256.256,0,0,1,.073.147l1.393,2.419,1.393-2.419a.609.609,0,0,1,.88-.147.59.59,0,0,1,.22.806l-1.393,2.419h2.786a.714.714,0,0,1,.586.733c0,.293-.293.513-.586.586h-2.786l1.393,2.419a.705.705,0,0,1-.293.88.59.59,0,0,1-.806-.22l-1.393-2.419-1.393,2.419a.609.609,0,0,1-.88.147.667.667,0,0,1-.22-.806l1.393-2.419h-2.786a.779.779,0,0,1-.66-.733Z" transform="translate(0.1 0.08)"/>
</svg>
