<svg xmlns="http://www.w3.org/2000/svg" viewBox="0 0 91.203 82">
  <defs>
    <style>
      .cls-1 {
        fill: none;
        stroke: #b3b3b3;
        stroke-linecap: round;
        stroke-linejoin: round;
        stroke-miterlimit: 10;
        stroke-width: 2px;
      }
    </style>
  </defs>
  <g id="Group_20129" data-name="Group 20129" transform="translate(-0.222 -1.5)">
    <path id="Path_7882" data-name="Path 7882" class="cls-1" d="M37.4,69.5V86.823A1.677,1.677,0,0,0,39.067,88.5H95.733A1.677,1.677,0,0,0,97.4,86.823V36.5" transform="translate(-6.976 -6)"/>
    <path id="Path_7883" data-name="Path 7883" class="cls-1" d="M73.664,1.5,97.4,25.5H75.312a1.657,1.657,0,0,1-1.648-1.655V1.5H39.048A1.657,1.657,0,0,0,37.4,3.155V18.5" transform="translate(-6.976 1)"/>
    <g id="Group_20145" data-name="Group 20145" transform="translate(0 0.557)">
      <g id="Group_20146" data-name="Group 20146" transform="translate(-0.327 0.364)">
        <line id="Line_4694" data-name="Line 4694" class="cls-1" y1="12" x2="12" transform="translate(24.752 34.58)"/>
        <line id="Line_4695" data-name="Line 4695" class="cls-1" x1="12" y1="12" transform="translate(24.752 34.58)"/>
      </g>
      <circle id="Ellipse_1032" data-name="Ellipse 1032" class="cls-1" cx="18" cy="18" r="18" transform="translate(12.425 22.943)"/>
      <path id="Path_7884" data-name="Path 7884" class="cls-1" d="M19.425,67.9,5.992,81.4a2.613,2.613,0,0,1-3.768,0h0a2.642,2.642,0,0,1,0-3.785L15.575,64.2" transform="translate(0 -12.257)"/>
    </g>
  </g>
</svg>
